<?xml version="1.0" encoding="UTF-8"?>
<svg xmlns="http://www.w3.org/2000/svg" height="297" width="267" viewBox="0 0 89 99" xmlns:xlink="http://www.w3.org/1999/xlink">
<defs>
<pattern id="b" width="10" patternUnits="userSpaceOnUse" patternTransform="scale(1.25)" height="10">
<g fill="#fd6">
<rect width="10" fill="#044" height="10"/>
<circle cy=".81" cx="2.57" r=".3"/>
<circle cy="2.33" cx="3.05" r=".3"/>
<circle cy="2.42" cx="4.42" r=".3"/>
<circle cy="3.03" cx="1.84" r=".3"/>
<circle cy="1.36" cx="6.08" r=".3"/>
<circle cy="4.41" cx="5.82" r=".3"/>
<circle cy="4.05" cx="4.3" r=".3"/>
<circle cy="3.04" cx="5.54" r=".3"/>
<circle cy="5.53" cx="4.78" r=".3"/>
<circle cy="5.18" cx="2.67" r=".3"/>
<circle cy="1.45" cx="7.96" r=".3"/>
<circle cy="5.05" cx="7.05" r=".3"/>
<circle cy=".895" cx="4.34" r=".3"/>
<circle cy=".34" cx="7.12" r=".3"/>
<circle cy="1.05" cx="9.55" r=".3"/>
<circle cy="2.69" cx="7.01" r=".3"/>
<circle cy="2.69" cx="8.91" r=".3"/>
<circle cy="4.41" cx="9.32" r=".3"/>
<circle cy="3.87" cx="7.82" r=".3"/>
<circle cy="5.95" cx="8.27" r=".3"/>
<circle cy="7.43" cx="7.97" r=".3"/>
<circle cy="8.07" cx="9.34" r=".3"/>
<circle cy="9.32" cx="8.21" r=".3"/>
<circle cy="9.48" cx="9.68" r=".3"/>
<circle cy="6.19" cx="9.69" r=".3"/>
<circle cy="6.3" cx="3.38" r=".3"/>
<circle cy="8.2" cx="2.87" r=".3"/>
<circle cy="8.72" cx="4.59" r=".3"/>
<circle cy="9.67" cx="3.18" r=".3"/>
<circle cy="7.32" cx="5.73" r=".3"/>
<circle cy="6.51" cx="6.71" r=".3"/>
<circle cy="9.67" cx="5.73" r=".3"/>
<circle cy="8.37" cx="6.54" r=".3"/>
<circle cy="7.15" cx="4.37" r=".3"/>
<circle cy="7.25" cx=".622" r=".3"/>
<circle cy="5.68" cx=".831" r=".3"/>
<circle cy="8.52" cx="1.26" r=".3"/>
<circle cy="6.88" cx="1.99" r=".3"/>
<circle cy="3.18" cx=".374" r=".3"/>
<circle cy="1.66" cx="1.17" r=".3"/>
<circle cy=".093" cx="1.15" r=".3"/>
<circle cy="10.1" cx="1.15" r=".3"/>
<circle cy="4.45" cx="1.3" r=".3"/>
<circle cy="3.76" cx="3.05" r=".3"/>
</g>
</pattern>
</defs>
<g stroke-linejoin="round" stroke="#e70" stroke-width=".5">
<path d="m0.35 0.35h88.3v98.3h-88.3z" fill="#fccb8d"/>
<path stroke="#044" stroke-width=".8" d="m2.6 2.3h83.8v94.1h-83.8z" fill="url(#b)"/>
<use xlink:href="#a" stroke="#044" stroke-width="1.6"/>
<g id="a">
<path d="m11.6 22.9 9.5-14.5-11.7 0.03z" fill="#923"/>
<path d="m9.6 8.91c4.7 2.39 8.4 0.92 8.4 0.92-2.5 5.37-5.4 10.5-6.2 11.7-0.6-7.6-2.2-12.6-2.2-12.6zm1 52.9c1.5-1.1 3.5-0.2 3.5-0.2 1.2-11.3-3.6-9-2.2-10.4 2.4-2.7 4.6-0.8 5.6-0.7 1.1 0.1 0.5-4.5 0.5-4.5l1.9-0.2c0.4 0.7 2.1 2.5 2.1 2.5 0.1-0.6 1.7-2.1 1.7-2.1-3.8-3.9-3.9-12.3-3.9-12.3s-4.2-0.5-3.5-1.3c1.3-1.6 0-1.8 0-1.8s-1.3-0.7-1.3 1.6 3.3 2.9 3.3 2.9 1.2 7.8-0.7 7.7c-1-0.1-1.4-0.6-0.5-1.2 0.8-0.5 0.8-2.3 0.4-2.7-0.3-0.4-1.9 0-1.9 0l-0.5 8.1-1.2-0.1 0.2-8.7s-2.7-1-3.3-5.4c-0.7-9.5 8.4-20.6 14.6-22.4 4.6-1.39 2.9-0.4 0.6 0.8-7.7 6.1-7.6 13.1-7.6 13.8 0 0.6 2.2 0.1 2.2 0.1 1.1-10.6 10.8-14.6 10.6-15.2 1.6-1.35-0.8-4.14-0.8-4.14s-4.5 0.54-9.2 1.16c-9.9 1.33-16.8-3.98-16.8-3.98 5.7 14.2 8.3 32.8 6.2 58.7z" fill="#fccb8d"/>
<path stroke="#fd6" d="m11.7 11.1 3.9 0.6-2.9 6z" fill="#0b8"/>
<path d="m36.2 5.63c-0.4 0-0.7 0.5-1 0.4-0.7-0.5-0.8-1.51-1.7-2.01-0.8-0.5-1.6-0.2-2 0.5-0.1 0.2-0.1 0.5 0 0.7 1.3 1.71 1.6 3.62 1.9 5.58 0.1 1.1 1.7 0.8 2.4-0.2 0.2-0.4 0.1-0.96 0.4-1.36 0.4-0.4 1.1-0.6 1.5-1.11 0.5-0.8 0.7-1.7-0.2-2.3-0.5-0.3-0.9-0.3-1.3-0.2z" fill="#fd6"/>
<path fill="#fccb8d" d="m84.3 49.8c0 22.9-8.7 28.1-16.4 37.5-14.5 14.7-33.4 5.1-33.4 5.1s-0.6-2 0.1-1.8 3.6 1.3 8.8 1.3c5.3 0 19.5-0.4 24.1-25.5 0 0 2.4-2 2.8-1.7 0.3 0.4-2.4 10.4-4.9 14.4 0 0-1 2.7 1 1 2-1.5 12.8-15.5 12.7-29-0.1-13.9-7.5-28.4-13.1-32.7 0 0-1.7-1.1-0.7 1 1.1 2 6.9 8.8 6.2 33.6 0 0 0.7 2.5-2.1 2.6 0 0 0.4-20.3-4.4-30.8-3.9-8.8-13-16.4-28.8-15.6l-1.4-3.84c6.7-2.61 49.5 1.58 49.5 44.4z"/>
<path d="m33.5 91.2c-0.3-1.1-1.6-1.7-1.8-2.4-0.1-1 0.6-2.3-0.9-2.8-0.8-0.3-1.8 0.1-2.2 0.9-0.2 0.5 0.1 1 0.2 1.4 0.7 2.1-0.7 3.8-2.6 5-0.6 0.4-0.2 1.3 0.5 1.7 0.4 0.2 0.9 0.3 1.3 0.1 0.8-0.3 1.2-1 2-1.5 0.5-0.3 1.4 0.3 2-0.1 0.8-0.5 1.7-1.3 1.5-2.3z" fill="#fd6"/>
<path d="m5.05 95.5c6.15-5.3 15-5.9 22-3.6 1 0.2 1.9-1.2 0.9-1.6-2.8-0.9-8.2-5-10.4-7.6-2.9-3.4-5.3-10.7-7-20.6-0.2 13.6-2.5 27-5.45 33.4z" fill="#fccb8d"/>
<path d="m12.3 76.2c1.2 3.3 3.5 8.3 7.8 12.3-3.4-0.4-6.4 0-9.7 0.3 0.1-4.1 2.1-8.8 1.9-12.6z" fill="#923"/>
<path d="m26 85.6c-3-2.6-5.1-5.8-6.2-9.5-0.3-1-0.4-2.1-0.3-3.2 0-0.2-0.2-0.6-0.6-0.6-0.9-0.1-2.6-0.2-2.6 0.6 0.4 6.8 4.8 13.3 10.9 16.9 1.7-1.6 0-3.1-1.2-4.2z" fill="#0b8"/>
<path stroke="#fd6" d="m13.4 81.3-0.8 6.1h4.6z" fill="#0b8"/>
<path d="m19 71.2s-1.6 0-4.4 0.5c-2.6 0.4-5.23-1.6-5.23-4.2s1.43-5 4.13-5 1.8 0.5-0.2 1.6-1.1 3.9 1.4 3.6 1.6-0.4 1.8-1.4 1.7 2.6-1.8 3.3c0 0-1.4 0.3-2.2-1.2 0 0-1 2.1 2.8 1.9 3.7-0.2 2.8-0.3 3.7 0.9z" fill="#0b8"/>
<path d="m20.3 71s0.6-1.4-1.3-2.8-0.2-2-0.6-3-0.4-16.8 15.6-18.2c0 0 4.9-0.3 8.9 3.1l2-1.5s-4.7-4.1-11.3-3.4 3.4-2.2 0.4-4.4-0.9 2.1-5.2 3.7c-5.4 2-9.5 7.7-10.7 12 0 0-0.5 0.8-0.5-0.9 0-1.2 0.7-3 3.5-6.5l-1.5-1.9s-0.2 4.8-2 5.2-2.4-2-4.1-0.9 2.9 2.3 2.2 9.1c0 0 0 3.1-1.6 4s-0.5 2.2 0.3 2.2 1.8-1.6 1.8-1.6 2.2 0.6 2 3.4 1.8 0.9 2.1 2.4z" fill="#0b8"/>
<path d="m24.1 68.8s-0.6-0.7 1-3.8c2.3-3.8 1.4-7.4 1.4-7.4 4.2 1.6 0.9 5.2 0.9 5.2s2.4-2.5 5.7-2.5c4.8 0 7.1 2.8 7.6 4.3 0.5 1.6 2 5.5 4.5 5.5 2.6 0 3.5-1.7 3.5-1.7 0.2 2.5-0.9 4.2-2.8 4.2-1.8 0-2.9-0.9-2.9-0.9-0.6 4.4-2.9 7.9-3.5 8.3-0.6 0.6-1.9 0-1.9 0 3.5-6.2 3.3-10.6 3.3-10.6 0.1 1.1-2.3 4.9-5.2 4.7-3-0.2-3.5 1.1-3.5 1.1-3.1-2.4 0.4-4.2 0.4-4.2 4.4 2.8 5.7-1.2 5.7-1.2-1 1.1-2.8 1.1-2.8 1.1s-2.6-0.1-2.6-2.1 2-2.4 2-2.4-1.5 2.7 0.9 2.7c2.7 0 2.6-2.8 2.6-2.8s-0.3-4.4-4.9-4.4c-6 0-7.5 5-7.6 8.1-0.2 3 2.9 12.1 12.5 11.4s11.7-9.6 11.7-15.1c0-5.6-3.4-11.5-3.4-11.5 0.6-1.3 2.3-1.1 2.3-1.1s0.2-1.4 3.5 7.8c3.4 9.2 8 5.6 8 5.6 0 2.6-3.1 1.6-3.1 1.6-2.2 0.5 0.1 1.4 0.1 1.4 6.4 1.2 2.7 7.4 2.7 7.4s-0.2-4-3-5.1c-3.9-1.5-5-3.5-5-3.5 0.6 3.9-0.6 3.4-1.1 9.2-0.4 6 4.7 4.1 4.7 4.1-0.8 2.6-3.5 2.9-3.5 2.9-4.9 0-3.7-6.1-2.9-7.6s-0.2-1.2-0.2-1.2-1.2 2.5-2 4.1c-0.7 1.7-2.5 1.2-3.9 1.1-1.2-0.1-3.8 2-3.8 2-12.9 0-14.8-9.2-14.8-9.2-3.3-0.7-3.1-4.3-3.1-4.3-1.8-2.7-1.4-6.3-1.4-6.3s2.6 1 2.6 3 1.1 1.9 1.3 2.1z" fill="#0b8"/>
<path d="m37.6 84.2s0.7 3.6 4.5 3.3c4-0.3 3.1-3.4 3.1-3.4s-1.1-2.4-3.3-0.4 1.9 1.5 0.4 1.6c-1.4 0.1-1.8-1.2-1.8-1.2l-2.9 0.1z" fill="#0b8"/>
<path d="m27.9 50.2s4.4 2.2 9.4 2.2 14-3.5 14-16.1c0-12.5-9-16.6-13.2-16.6-4.3 0-7.1 3.5-7.1 7.3s2.5 5.2 5.3 5.2c2.7 0 2.8-3.6 1.2-4.1 0 0 2.3-2.8 4 0.4 0 0 1.4 0.4 0.4-1.9-1.1-2.4 1-3.5 2.9-3 0 0-1.9 1.3-1.2 5.4 0.5 4.1-2.8 5.8-6.1 5.5s-3.2-0.7-3.2-0.7-0.4 1.6 4.8 1.6c5.4 0 10.7-3.9 10.7-3.9s0.9 1.4 0.4 2.3-6.4 2.8-10.9 2.5 0.5 1.4 3.6 0.5c0 0 3 4.7 4.8 4.9 0 0-2.1 1.8-3.1-1.2 0 0 0 2.4-2 2.9 0 0 0.5-3.5-3.5-4.8-3.9-1.2-10.5-2.9-9.4-11.8 0 0-1-0.3-1 6.5 0 3.7-1.8 4.1-0.5 7.4 0 0-3.4 0.2-2.9-5 0 0-2.6 2-4.2 1.8l0.2-2.9s4.7-2.1 5.9-6.3c1.3-4.3 3.4-10 10.6-10.4 0 0-2.7-4.4 1.3-4.8 0 0-1.5 2.8 3.8 5.2 5.5 2.3 6.1 5 6.1 5s1-0.5-0.5-3.1c-0.9-1.7 1.6-3.1 1.6-3.1s1.9-0.6 2.7-2.1 1.9 2-0.6 4.6c-1.8 1.9 0.4 1.3 0.4 1.3s2.8-1.4 2.4 2.2-5.3-2.2-2.9 4.4c0.9 2.6 1.9 6.4 1.9 6.4s-1.5 0.3-1.5 2 1.4 1.9 1.4 1.9-1.4 12.2-11.7 15.5 4.9 0.1 9.2-5.5c4.5-5.7 8.7-3.4 9.4-0.2 0 0-2.5-1.4-4.8-0.9-2.5 0.7-6.4 8.2-16.2 8.6-9 0.3-13.6-3.8-13.6-3.8s0.7-1.2 1.7-1.3z" fill="#0b8"/>
<path d="m17.5 36s-3.8 0.2-3.7-3.6c0.1-3.4 2.6-2.7 2.6-2.7s2 0.3 1.8 3.3 2.4-0.3 2.4-1.9c0-1.7-1.9-2.1-2.6-1.7 0 0-0.5-1.4 2.6-1.8 3.2-0.3 4.9-3.6 1.8-4.3 0 0 2 2.1-1.6 2.8-3.5 0.7-3.1 0.6-3.1 0.6s-0.3-3.8-2.1-4.3 0.9 3.8-2.6 6.4c-2.4 1.8-1.7 8.9 4 9.3 0 0 1-1.3 0.5-2.1z" fill="#0b8"/>
<path d="m54 31.9s1.3 0.7 1.3 2.1c0 1.5-2 1.4-2 1.4s3.1 2.1 3.4-1.1c0.3-3.1-2.4-3.4-2.4-3.4s-0.8-0.4-0.3 1z" fill="#0b8"/>
<path d="m53.4 44.3s3.2-3.2 6.9 0.2 5.3-1.2 8 0.1 0.2-2-1.1-2.1c-1.2-0.1-3.2-0.6-6.2 0 0 0 3.2-3.2 2.9-5.9s-3.4-1.3-1.9-4c1.3-2.7 2-2.2 2-2.2s-4.3-0.8-4.8 2.8c-0.1 1.9 1.7 2.7 1.7 2.7s-2.3 1.4-3.1-1-0.8 2.4 2.4 3.2 1.6 2-6.8 6.2z" fill="#0b8"/>
<path d="m73.3 47.5s2.6 1.8 2.6 7c0 5.1-3.7 8.4-5.3 8.9-5.2 1.5-5.4 4-5.4 4s-2-3.5 1.4-4.1c3.3-0.6 4.5-2.4 4.5-2.4s-0.2-1.7-1.7-0.6-1.4 1.6-3.5 1.8c-2.1 0.3-5-1.2-5.5-2.2s-2.2-1.1-2.7-1.1c-0.6 0-2.7 1.2-0.3 2.5 0 0-2.9 0.6-2.9-1.6s1.9-3 3.8-2.9 4 3.3 5.5 3.3 1.3-1.2 1.3-1.2-2.1 0.2-2.8-1.4c-0.8-1.5-0.3-2.7-2.5-3.4 0 0 2.5-1.9 5.8 2.4 0 0-0.2-3.2 2.8-3.5 0 0-2 3.8 2.2 3.6 2.9-0.1 2.9-3.7 2.9-3.7s0.4-1.2-0.7-2.8-0.1-3.3 0.5-2.6z" fill="#0b8"/>
<path d="m70.6 26.3s7.6 12 7 26.1c-0.5 10.6-7.2 20.1-7.2 20.1s1.7-7 1.8-8.8 4.2-3 4.7-8.5c0.4-5.2-2.2-9-3.7-9.4 0 0-0.2-10.9-2.6-19.5z" stroke="#fd6" stroke-width="0.6" fill="#0b8"/>
</g>
</g>
</svg>