<?xml version="1.0" encoding="UTF-8"?>
<svg xmlns="http://www.w3.org/2000/svg" height="297" width="267" viewBox="0 0 89 99" xmlns:xlink="http://www.w3.org/1999/xlink">
<defs>
<pattern id="b" width="10" patternUnits="userSpaceOnUse" patternTransform="scale(1.253)" height="10">
<g fill="#fd6">
<rect width="10" fill="#044" height="10"/>
<circle cy=".81" cx="2.567" r=".3"/>
<circle cy="2.33" cx="3.048" r=".3"/>
<circle cy="2.415" cx="4.418" r=".3"/>
<circle cy="3.029" cx="1.844" r=".3"/>
<circle cy="1.363" cx="6.08" r=".3"/>
<circle cy="4.413" cx="5.819" r=".3"/>
<circle cy="4.048" cx="4.305" r=".3"/>
<circle cy="3.045" cx="5.541" r=".3"/>
<circle cy="5.527" cx="4.785" r=".3"/>
<circle cy="5.184" cx="2.667" r=".3"/>
<circle cy="1.448" cx="7.965" r=".3"/>
<circle cy="5.049" cx="7.047" r=".3"/>
<circle cy=".895" cx="4.34" r=".3"/>
<circle cy=".34" cx="7.125" r=".3"/>
<circle cy="1.049" cx="9.553" r=".3"/>
<circle cy="2.689" cx="7.006" r=".3"/>
<circle cy="2.689" cx="8.909" r=".3"/>
<circle cy="4.407" cx="9.315" r=".3"/>
<circle cy="3.87" cx="7.82" r=".3"/>
<circle cy="5.948" cx="8.27" r=".3"/>
<circle cy="7.428" cx="7.973" r=".3"/>
<circle cy="8.072" cx="9.342" r=".3"/>
<circle cy="9.315" cx="8.206" r=".3"/>
<circle cy="9.475" cx="9.682" r=".3"/>
<circle cy="6.186" cx="9.688" r=".3"/>
<circle cy="6.296" cx="3.379" r=".3"/>
<circle cy="8.204" cx="2.871" r=".3"/>
<circle cy="8.719" cx="4.59" r=".3"/>
<circle cy="9.671" cx="3.181" r=".3"/>
<circle cy="7.315" cx="5.734" r=".3"/>
<circle cy="6.513" cx="6.707" r=".3"/>
<circle cy="9.67" cx="5.73" r=".3"/>
<circle cy="8.373" cx="6.535" r=".3"/>
<circle cy="7.154" cx="4.37" r=".3"/>
<circle cy="7.25" cx=".622" r=".3"/>
<circle cy="5.679" cx=".831" r=".3"/>
<circle cy="8.519" cx="1.257" r=".3"/>
<circle cy="6.877" cx="1.989" r=".3"/>
<circle cy="3.181" cx=".374" r=".3"/>
<circle cy="1.664" cx="1.166" r=".3"/>
<circle cy=".093" cx="1.151" r=".3"/>
<circle cy="10.09" cx="1.151" r=".3"/>
<circle cy="4.451" cx="1.302" r=".3"/>
<circle cy="3.763" cx="3.047" r=".3"/>
</g>
</pattern>
</defs>
<g stroke-linejoin="round" stroke="#e70" stroke-width=".5">
<path stroke="#e70" d="m0.35 0.35h88.3v98.3h-88.3z" fill="#fccb8d"/>
<path stroke="#044" stroke-width=".7" d="m2.6 2.3h83.8v94.1h-83.8z" fill="url(#b)"/>
<use xlink:href="#a" stroke="#044" stroke-width="1.6"/>
<g id="a">
<path d="m70.58 86.32 6.05 0.73-1.87-5.83zm0.74-72.13 4.94-0.38-0.75 7.36zm-3.32-2.1c0.11 0.18 7.78 1.35 10.18-0.9-1.47 4.23-1.01 8.59-2.17 14.34-2.25-4.79-4.56-9.62-8.01-13.44zm0.15 36.37 5.19-1.39v2.7zm-7.9-0.14 15.77-5.16v10.33zm15.74 27.49c0.16 1.47-8.38 12.8-11.61 13.05 1.27-0.5 11.19-2.4 15 1.45-0.98-1.53-3.65-10.27-3.39-14.5zm-66.13-26.69c0 8.59 2.81 16.08 7.14 23.08-3.33-8.67-4.83-15.67-4.83-23.11 0-8.22 1.16-13.22 2.71-18.89-2.55 5-5.02 13.3-5.02 18.92zm11.16-30.29c-7.43 6.45-12.89 20.29-12.69 31.37 0.204 10.98 6.81 23.99 13.58 29.83-4.24-8.16-7.79-16.28-8.24-29.83-0.47-13.84 2.33-20.67 7.35-31.37z" fill-rule="evenodd" stroke="#fd6" stroke-width=".6" fill="#8e1d36"/>
<path fill="#fccb8d" d="m60.25 48.32c4.82 0 11.99-1.55 15.06-3.98-0.47 2.66-0.38 5.31 0 7.97-3.49-2.51-11.63-3.72-15.06-3.99zm-14.41-1.97s6.66-0.54 13.02-0.53c5.6 0.01 13.65-1.31 19.09-6.03 0 0-0.22 12.48-0.22 16.35-5.51-4.31-18.43-5.37-25.14-5.61-3.33-0.09-6.97-0.12-6.97-0.12s-0.79-2.7 0.22-4.06zm22.16-34.26c0.11 0.18 7.78 1.35 10.18-0.9-1.47 4.23-1.01 8.59-2.17 14.34-2.25-4.79-4.56-9.62-8.01-13.44zm-46.98 6.74c-7.43 6.45-12.89 20.29-12.69 31.37 0.204 10.98 6.81 23.99 13.58 29.83-4.24-8.16-7.79-16.28-8.24-29.83-0.47-13.84 2.33-20.67 7.35-31.37zm54.97 56.98c0.16 1.47-8.38 12.8-11.61 13.05 1.27-0.5 11.19-2.4 15 1.45-0.98-1.53-3.65-10.27-3.39-14.5zm8.26-73s-7.18 6.075-11.46 5.869c-5.61-0.27-16.34-6.275-26.62-5.915-10.27 0.36-41.86 11.91-41.76 44.93 0.104 36.1 34.99 48.84 44.17 47.68 7.16-0.9 13.89-3.44 19.95-4.04 4.94-0.48 9.8 0.34 15.15 4.08-1.96-3.92-5.97-24.96-5.51-32.84 0 0-7.01 28.92-29.84 29.02-28.45 0.14-31.23-38.26-30.16-39.84 0.53 0.22 25.97 0 25.97 0v-6.92s-26.73 0.5-26.34 0-1.93-36.59 29.87-38.31c23.3-1.267 30.21 33.99 30.21 33.99 0.04-3.28 0.54-12.68 2.12-22 1.29-7.62 3.44-13.65 4.25-15.71z" fill-rule="evenodd"/>
<path d="m57.08 57.82c2.17 2.06 4.25 4.71 5.25 8.71 1.67-0.33 3.41-2.1 3.34-2.33-1.34-4.33-5.14-8.61-8.6-10.74-2.59-1.6-6.6-2.98-11.27-3.11-1.01-0.16 0.59 2.22 2.42 2.99 0 0 3.21-0.89 8.86 4.48z" fill="#0b8"/>
<path d="m43.57 86.73c-3.09-0.23-6.74-4.81-1.83-4.62-2.74-4.24-6.74-1.24-4.16 2.72-1.25-2.63-3-2.97-3.58-9.96-0.33-4 3.28-9.4 5.84-12.04 0 0 1.96-0.07 3.35-1.79 1.48-1.84-0.52-4.17 1.14-5.84-2.42-0.25-2.44 2.45-3 3.67-0.34 0.76-1.91 1.58-1.91 1.58 2.25-3.25 0.5-6.54-3.8-3.84 1.71 0.26 3.51 2.19 0 6.62-2.24 2.84-4.62 7.64-3.67 11.35-0.62-2.71-0.95-5.05-1.62-6.71-1.08-2.71-1-7.34 1.34-7.67-0.67-1-5.62-1.94-5.05 3.1 0 0-2.21-1.81-3.53-3.21-2.24-2.37-1.09-4.89 2.58-3.89-0.67-3-7.4-2.06-6.42 3.47 0.74 4.22 5 5.87 5 5.87-0.7-0.32-4.25-1.34-2.58 3.66 1-1 3.39-2.66 5.9 2.09 2.09 5.71 4.77 15.57 15.19 18.66z" fill="#0b8"/>
<path d="m65.88 73.94c0.6-0.1 4.95-0.64 6.16-3.58 1.29-3.16-1.37-5.16-2.34-4.48-0.8 0.56-2.03 1.99 0.3 3.65-1.02 0.98-3.67 0.64-3.67-2.33-0.33 0.67-3.8 2.37-5.98-0.96 0 0 2.41 0.89 4.22-1.18s3.06-2.96 4.37-2.25c-1.48-2.06-5.15-1.99-5.72-4.69-0.7-3.29 1.59-4.28 4.18-3.84-3.77 2.94-0.4 4.82 1.83 5.98 1.51 0.78 3.84 3.34 3.84 3.34 0.19-0.23-2.67-2.48-3.8-3.4-1.49-1.23-0.3-4.48 3.06-3.86 0 0-1.08 2.67-0.57 3.96 1.31 3.3 2.67 3.24 3.05 6.39 0.68 5.82-3.11 9.42-9.16 9.35z" fill="#0b8"/>
<path d="m63 25.87s5-0.34 5 4c0 4.33-2.67 2.33-2 0.66-2.33 0.63-3.33 4.67 1.33 4.67-3-0.33-6.37 1.55-4.33 5.33 0 0 1.21-2.22 5-3.66 2.71-1.04 3.67-3.18 3.37-5.07-0.37-2.27-0.37-8.6-8.37-8.27 0 0-0.1 1.08 0 2.34z" fill="#0b8"/>
<path d="m65.66 67.84s5.58 19.79-17.88 22.14c-1.4 0.14-1.7-2.05-0.37-2.41s12.59-1.7 14.59-9.37c-0.67 2-6 5.33-5-2 0.78 1.63 7.25 3.66 5.86-7.69 0 0 2.23 0.05 2.8-0.67z" fill="#0b8"/>
<path d="m44 73.2c0.65-0.55 1.2-0.63 1.56-2.04-1.4-1.05-2.18-0.21-2.79 0.27 0 0 0.81-1.3-0.43-2.49-0.82 0.14-1.81 1.1-1.57 2.03 0 0-0.11-1.48-1.13-1.81-1.18 0.91-0.66 2.77-0.66 2.77-0.85-0.66-1.19-0.2-2.05 0-0.24 1.87 0.17 2.28 1.15 1.87 0.44-0.18-1.54 0.78-1.97 1.95 0.1 1.09 1.55 0.53 2.15 0.29 0 0-1.5 1.25-1.03 2.26 1.31-0.54 3.19 0.48 3.44-1.1" fill="#fd6"/>
<g fill="#fd6">
<path d="m47.13 88.87c0.18-2.65-2.9-3.53-3.93-1.66-3.01 5.47 7.52 4.91 6.96 2.66 0 0-1.33 0.22-2.08 0.17-0.81-0.04-1.09-0.98-0.95-1.17zm2.37-35.41c-0.8-0.1-4.47 0-4.22-5.67 0.22-4.61 4.56-4.43 4.54-4.54 2.31-2.05-4.08-6.69-5.39 1.17-1.05-0.94-2.81 0.42-3.55 2.32-1.91 0.62-1.51 1.23-0.16 2.33 0.52 1.9 1.49 3.09 2.83 2.29-2.27 2.72 3.98 8.3 5.95 2.1zm-3.84-32.65c0.33 0.43 1.89-0.35 0.3-2.02-0.95-0.99-2.36 0.17-2.36 0.17-0.46-2.29-4.45-0.93-2.63 1.35-2.58-0.78-3.08 2.43-0.95 3.08-2.23 1.36-0.37 4.05 1.7 2.34-0.78 2.26 2.86 2.48 2.44 0.23 2.38 0.82 3.29-2.62 0.75-1.68-1.23-1.57-1-2.73 0.75-3.47z"/>
<path d="m43.33 76.16c-1.03 1.15-2.63 1.41-3.58 0.57s-0.89-2.45 0.14-3.6c1.03-1.16 2.64-1.41 3.59-0.57s0.88 2.45-0.15 3.6z"/>
</g>
<path d="m125 22.47c-3.3 0.12-6.5 2.12-9 7.12 3-1.99 8-2 9 1s8.3 4.59 9.8 5.07c-2.8-0.6-15-1.23-30.3 12-12.63 11.01-13.2 12.11-17.22 10.34-4.5-1.98-1.23-7.84 3.72-8.41-7.98-3.99-12.68 2.41-14.06 8.32-1.17 4.86 4.05 12.59 8.37 12.59 11.67 0 15.69-7.88 15.69-7.88-3.42 6.22-3.61 10.13-3.91 13.91-0.27 3.78 2.17 18.66-7.21 17.91-5.76-0.48-4.88-4.83-4.88-8.85-10.98 0-8 12-8 12-1.71-0.66-3.5-2.13-4.94-2.28-8.07-0.72-11.77 6.19-10.06 11.29 9.99-7 12.38-1.4 17 0 7.32 2.3 11.14 0.4 13.09-1.7-3.73 4.2-11.22 5.2-14.93 5.8-4.56 0.8-13.69 3.6-13.69 12.2 0.39 9.5 12.34 12.2 16.69 4.4-6.9 1-9.77-5.3-3.47-8.7 10.08 0.7 10.03 0.6 15.19-2.6-9.9 6.1 4.64 12.6 9.72 7-5.98-2.4-6.64-8.2 0.8-18.6 3.3-4.58 1.6-18.71 1.6-18.71 3.7 11.88 4.8 13.45 6.2 16.71 1.5 3.3 11.7 10.2 11.7 14.3 0 4.9-4.9 4.9-5.9 4.9 11 8 14.4 3.3 14.6-2.4-0.8-8.2-5.3-11.1-10.6-16.9 1.9 1.6 5.4 3.5 11.1 3.5 10.2 0 23.6-4.6 30.4-11.36 5.2-5.28 13.2-12.49 18.1-14.44-0.1-2.64-0.7-5.99-1.2-7.16 0 0-10.2 1.92-18.5 11.91-8.2 11.07-11.9 11.16-24.9 12.84 11-3.99 10.1-5.56 15.1-11.56 4.1-4.98 4.5-14.74 6.2-18.34 1.4-2.85 6.2-4.26 9.3-5.16-2.2-5.4-19.2-6.01-17.7 7.85-0.4-2.55-2.8-4.28-5.6-5.47-0.7-2.41-2.6-3.53-4.7-3.53-3.3 0-6.2 3.15-6.2 6.37s2.2 6.33 5.4 6.33c1.6 0 3.4-1.13 4.4-2.08 1.5 1.45 1.7 4.71 1.7 8.16 0 8.43-5 14.06-15.6 14.06-20 0-19.5-20.83-19.8-25.69s1.2-24.03 29.5-25.94c27-1.81 42.9 23.96 42.9 37.16 0 14.88-1.9 22.45-2.6 24.75 2-7.34-5.6-11.58-12.3-4.91 8 3.01 5.3 13.21 2.2 18.01-6.2 10-24.4 14.5-24.4 14.5-3.2 1.8-5.1 6.3-5 6.3 23.2-0.3 33.7-10.4 41.5-20.5 13.3-15 7.7-35.3 10.7-49.28 5-15 14-8.03 14-5.03 2-18.99-11-14.97-14-9.97 10-17-1-22.02-10-15 5 1.98 9 6.97 4.8 11.38-4.1 4.35-2.8 8.58-1.8 16.59-3-11.01-7.6-19.79-26-29-12-6-6-13-3-15-17.8-1.29-13.7 10-12.3 12.85-1.5-2.63-5.9-7.01-7.7-8.85-2.5-2.5-5.7-4.25-9-4.12z" transform="scale(.3333)" stroke-width="1.8" fill="#0b8"/>
<path d="m39.33 63.34s3.36-2.24 6.22-2.12c7.12 0.31 7.5 4.22 9.78 4.31 2.29 0.09 2.59-0.96 2.02-2.77 3.11 0.85 3.51 5.95-0.52 5.77-1.17-0.37-1.85-1.17-1.85-1.17 1.78 2.26 5.15 4.62 7.88 5.96 0 0-0.24 2.08-0.9 2.08-4.17-1.31-6.55-3.87-9.2-6.72-0.74-0.79-3.52-2.63-3.66-2.93 0.44 0.59 1.16 2.41 1.45 3.37 0.47 1.71 0.66 4.85-0.7 6.9-2.32 3.52-0.63 6.71 1.48 3.18 3 4.33-2.51 5.26-3.96 3.43 0 0 0.63 1.24 1.56 1.34 2.89 0.33 1.41 3.03 1.41 3.03s-1.89-0.14-3.41-0.05c-4.57-1.43-1.95-8.01-0.17-9.35-0.1 0.88-4.01 1.93-5.4-0.66-0.53-0.57 0.37-2.62 2.11-1.87 0.4 0.08 0.66 1.18 1.75 0.89 2.48-0.66 3.53-2.76 3.53-4.92s-0.71-6.51-6.42-6.51c-3.14 0-6.33 3.67-6.33 3.67z" fill="#0b8"/>
</g>
</g>
</svg>