<?xml version="1.0"?>
<svg xmlns="http://www.w3.org/2000/svg" height="297" width="267" viewBox="0 0 89 99" xmlns:xlink="http://www.w3.org/1999/xlink">
<defs>
<pattern id="a" height="10" width="10" patternUnits="userSpaceOnUse" patternTransform="scale(1.253)">
<g fill="#fd6">
<rect width="10" fill="#044" height="10"/>
<circle cy=".8" cx="2.57" r=".3"/>
<circle cy="2.33" cx="3.05" r=".3"/>
<circle cy="2.42" cx="4.42" r=".3"/>
<circle cy="3" cx="1.84" r=".3"/>
<circle cy="1.36" cx="6" r=".3"/>
<circle cy="4.4" cx="5.82" r=".3"/>
<circle cy="4" cx="4.3" r=".3"/>
<circle cy="3.04" cx="5.54" r=".3"/>
<circle cy="5.53" cx="4.78" r=".3"/>
<circle cy="5.18" cx="2.67" r=".3"/>
<circle cy="1.45" cx="8" r=".3"/>
<circle cy="5.05" cx="7" r=".3"/>
<circle cy=".9" cx="4.34" r=".3"/>
<circle cy=".34" cx="7.12" r=".3"/>
<circle cy="1" cx="9.55" r=".3"/>
<circle cy="2.69" cx="7" r=".3"/>
<circle cy="2.69" cx="8.9" r=".3"/>
<circle cy="4.41" cx="9.32" r=".3"/>
<circle cy="3.87" cx="7.82" r=".3"/>
<circle cy="5.95" cx="8.27" r=".3"/>
<circle cy="7.43" cx="7.97" r=".3"/>
<circle cy="8.07" cx="9.34" r=".3"/>
<circle cy="9.32" cx="8.2" r=".3"/>
<circle cy="9.48" cx="9.68" r=".3"/>
<circle cy="6.2" cx="9.69" r=".3"/>
<circle cy="6.3" cx="3.38" r=".3"/>
<circle cy="8.2" cx="2.87" r=".3"/>
<circle cy="8.72" cx="4.59" r=".3"/>
<circle cy="9.67" cx="3.18" r=".3"/>
<circle cy="7.32" cx="5.73" r=".3"/>
<circle cy="6.51" cx="6.7" r=".3"/>
<circle cy="9.67" cx="5.73" r=".3"/>
<circle cy="8.37" cx="6.54" r=".3"/>
<circle cy="7.15" cx="4.37" r=".3"/>
<circle cy="7.25" cx=".622" r=".3"/>
<circle cy="5.68" cx=".83" r=".3"/>
<circle cy="8.52" cx="1.26" r=".3"/>
<circle cy="6.88" cx="2" r=".3"/>
<circle cy="3.18" cx=".374" r=".3"/>
<circle cy="1.66" cx="1.17" r=".3"/>
<circle cy="0" cx="1.15" r=".3"/>
<circle cy="10" cx="1.15" r=".3"/>
<circle cy="4.45" cx="1.3" r=".3"/>
<circle cy="3.76" cx="3" r=".3"/>
</g>
</pattern>
</defs>
<g stroke-linejoin="round" stroke="#e70" stroke-linecap="round" stroke-width=".6">
<path stroke="#e71" d="m0.35 0.35h88.3v98.3h-88.3z" fill="#fccb8d"/>
<path stroke="#044" stroke-width=".8" d="m2.6 2.3h83.8v94.1h-83.8z" fill="url(#a)"/>
<use stroke-width="2" stroke="#044" xlink:href="#e"/>
<g id="e">
<path d="m17.42 74.33-1.91 12.91h3.82zm-2.42-56.66 4.67-0.67c-1.53 5.17-2.3 9.01-2.65 13.12-0.75-5.13-0.39-7.95-2.02-12.45zm9.33-3.67-12.33 1.67 4.67 29.33-3 44.67 9 0.33-4.67-45zm44.71-0.77h5.29l-2.39 4.82zm-6.27-4.262 9.35 13.33 5.68-12.02zm4.99 36.36-6.09 0.81 6.09 1.1zm2.17-2.33-17.26 2.96 17.26 3.61z" fill-rule="evenodd" stroke="#fd6" stroke-width=".5" fill="#923"/>
<g fill="#fccb8d">
<path d="m71 52c0.25 6.51 1.53 15.86 2.36 22.4 0.65 5.08 4.5 7.32 6.31 4.27 1.96-3.32-2-4.34-3.13-3.79 2.46 3.45-1.34 2.77-1.54 1.79-1.67-8-2.75-17-3.33-24.67z" fill-rule="evenodd"/>
<path d="m24.33 14c-4.11 1.57-8.22 3.23-12.33 1.67 2.44 1.98 5 9.66 5 29.33 0 20.53 0 28.83-3.33 44.67 0.16-1.13 6.7-2.23 9 0.33-4.67-9-5.13-17.67-5.13-45 0-11.67-1.54-23.67 6.79-31zm38.44-5.032c1.08 0.868 7.56 5.512 9.35 13.33 0.79-4.73 3-8.69 5.68-12.02-2.2 2.69-10.62 2.14-15.03-1.312zm-35.1 0.365c-7.31 4.377-13.67 3.667-13.67 3.667s-6-1-9.667-3.667c5.334 6.337 9.327 7.987 8.667 44-0.54 21.98 1 37.34-9.094 42.35 2.337 1.53 8.424-3.64 14.9-3.66 5.86-0.02 12.19 6.31 17.37 0.35-4.18 1.63-6.51 1.3-9.07-0.81-6.44-6.23-4.78-15.23-4.25-43.15 0.07 0.15 17.59-0.44 26.4 0.44 6 0.6 19.13 0.98 22.55 3.81-0.29-2.89-0.14-10-0.15-13.81-4.33 2.82-9.66 5.15-21.56 3.44-2.44-0.35-0.76-2.07-7.43-1.96-3.86 0.07-11.6-0.4-19.67-0.66 0.02-2.14-1.67-17.44 5.69-25.06 6.76-7 22.31-8.943 28.64-5.61 8.75 4.61 12.07 7.95 13.67 30.24l0.67-0.07c0.72-9.55 2.97-18.45 5.72-21.91 3.92-4.95 7.28-9.26 8.29-14.46 0 0.002-6.9 6.2-14.01 6.2-6 0-12.78-3.177-15.34-4-7.35-2.363-19.72-1.018-28.66 4.333zm41.68 34.03c-0.62 1.95-0.14 3.9 0.01 5.59-3.92-1.88-9.95-2.48-16.69-3.28 6.4 0.35 15.35-1.06 16.68-2.31z" fill-rule="evenodd"/>
<path d="m17.67 44.67c13.88-0.8 25.46-0.19 35 1"/>
</g>
<g fill="#0b8">
<path d="m35.97 21.45s-2.38 0.48-2.38-2.4 2.54-1.86 3.35-1.14 1.24-2.69-1.73-3.23 0.26-3.35-3.57-1.52c0 0 2.76 0.84 0.78 3.18 0 0-1.17 1.26-1.17 2.88s1.42 3.45 4.39 3.82l0.33-1.59z"/>
<path d="m42 40.33c11.67-0.33 12.58-4.13 14.25-7.1 0.81-1.45-0.99-5.32-2.25-5.32s-1.67 1.76-1.67 1.76c-1.08-2.16-0.49-4.82 1.04-4.73s2.97 2.25 2.97 2.25c0.18-1.97-1.84-2.51-3.01-3.86-2.27-2.62 0.58-4.96 0.58-4.96-0.63 1.17 0.63 3.33 1.71 4.05 3.67 3.45 2.96 7.83 2.71 9.58 2-4 1.16-7.42 1.16-7.42-0.99-10.16-7.1-10.25-10.16-10.25-1.66 0-10.48 1.34-10.81 6.93 0.48 5.5 5.97 9.04 7.48 8.74 1.67-0.33 3.32-2.17 3.14-5.05s-2.25-2.61-2.25-2.61-1.21-0.37-1.98 1.17c-0.45 0.9 0.36 1.71 0.36 1.71-2.88 0.45-2.52-1.98-2.52-1.98 0.27-3.33 4.14-2.88 4.14-2.88-3.69-1.8-7.38 1.08-7.38 1.08l0.09-1.08c2.07-2.07 5.13-1.89 5.13-1.89 2.43-0.09 6.3 1.17 6.3 5.67s-1.1 7.39-4.7 8.19c-3.95 0.89-7.41-5.68-7.33-5.33 1.41 5.74 10.56 11.22 10 12.33l-2.86 0.49c-2.81-2.15-4.47-4.82-4.47-4.82 0.18 4.41-3.6 3.62-3.6 3.62 1.8-1.62 0.45-5.39 0.45-5.39s-1.35-2.79-1.08-4.95-0.45-2.16-0.45-2.16-0.63-0.18-0.45 1.8-0.72 4.59-3.42 5.4-2.61 2.7-2.61 2.7c-2.34-2.52 2.16-4.23 2.16-4.23 1.08-1.26-0.45-0.9-0.45-0.9-3.87 1.71-3.51 3.33-3.51 3.33-2.88-0.99-3.6 2.34-3.6 2.34-1.71-3.24 1.35-4.95 1.35-4.95-2.7-1.53-3.06-4.14-3.06-4.14 0.54 1.26 2.7 0.27 2.7 0.27 1.17 3.33 3.06 2.43 3.06 2.43s-1.8-1.08-1.62-2.43c0.33-2.5 2.61-1.71 2.61-1.71-1.71 3.42 1.8 3.33 1.8 3.33s3.69-0.27 3.96-5.49c0.5-9.63 8.56-10.71 8.56-10.71-4.59-0.99-2.47-3.974-1.14-4.827 0 0-0.03 3.297 6.09 3.657 12.15 0.72 11.78 11.42 11.78 11.42 2.79-6.83-0.53-9.41-0.53-9.41 5.66-0.67 3.66 5.33 3.66 5.33 2.34-1.33 6.04 3.35 1.67 5.67 1-2.33-0.55-3.25-1.67-2.67-0.86 0.46-1.1 1.61-1.33 3.34-0.58 4.26-5 11-5 11 5.33-4 5.12-4.97 8-6 1.69-0.61 2 0.66 4-1.34 1 5.67-2.67 2.34-3.33 4 0 0 2.33 0.34 2.33 2.67 0 3-4.67 2-4.67 2 3.14-0.23 1.91-3.18 1-3.33-2-0.34-2.37 1.27-4 2.33-8.66 5.67-12.66 5.21-17.56 5.21z"/>
<path d="m51.78 41.83c0.36 0.4-2.72-0.11-3.09 0.42-0.21 1.28 4.07 3.57 2.79 11.49-0.09 7.29 6.89 9.95 8.37 10.35 4.95 1.35 7.82 2.24 9.48 6.24 0.27 3.78-2.64 4.38-2.64 4.38s-2.36-1.49-0.36-3.38c-1.26-0.55-3.51-0.13-2.61 2.39 0 0-2.97-1.44-2.79 2.07 0 0 1.23-0.91 2.4-0.46s2.02 1.52 4 1.34 3.41-2.68 3.23-6.28-3.78-5.85-7.11-6.84 5.13-0.36 4.55-3.55c-0.67-3.67-0.96-5.3 0.67-7-2.11-0.79-4.67 1-3.15 4.88 0 0-2.79-2.88-3.96-0.18 0 0 2.34 0.36 2.34 2.61s-3.06 2.52-4.32 2.25-2.36-0.04-5.25-5.23c-1.66-3-0.08-5.31 0-7.66 0 0 3 2.99 2.46 10.37 0 0 1.61 1.92 1.88 1.29 0 0 2.47-8.97-6.89-19.5z"/>
<path d="m56.07 63.91s-0.9 12.23-13.32 12.33c-11.25 0.09-11.43-11.34-11.43-11.34s-0.18-9.95 9.81-9.81c6.12 0.09 6.03 6.3 6.03 6.3s-0.36 3.42-3.87 3.33c-2.7-0.07-2.07-4.05-1.26-4.05 0 0-2.52-1.53-2.88 1.35s2.52 3.51 3.42 3.87-2.68 1.09-4.32-2.43c-1.26-2.7-3.69-2.25-3.69-2.25s0.36 3.87 2.79 4.95-0.09 0.27-0.95 0.27c-0.85 0-2.11-0.94-4-1.62 0 0-0.32 0.86 0 1.31 0 0 1.8 1.3 4.32 1.71 0 0 0.67 0.13 2.07-0.5 0 0 1.98-0.04-0.05 0.86-2.02 0.9-2.34 1.93-1.39 3.64 0 0 1.18-2.51 5.22-2.79 4.59-0.31 5.76-5.67 5.76-5.67s0.63 1.53-0.99 3.96-4.32 6.57-5 8.28 1.58 0.05 2.03-0.18 3.1-7.02 4.18-8.01 1.17-0.04 1.26 0.54c0.09 0.59 0.27 2.93 1.35 4.28 0 0 1.22-0.9 1.08-1.4-0.13-0.49-0.81-0.45-1.12-4.09-0.32-3.65-0.41-13.28-10.62-13.28 0 0-2.79-0.18-5.18 1.58 0 0 2.7-3.69-1.26-4.19 0 0 0.59 0.09 0.36 2.25-0.22 2.16-2.97 3.6-3.28 7.16 0 0-0.59 0.43-1.22-2.03 0 0-0.36-2.16-2.65-3.1-1.85-0.76-1.85-3.11-1.85-3.11s-3.24 3.2-0.36 4.73 2.57 0.22 2.79 0.94 0.72 1.17-0.81 0.72-3.6-0.67-2.88 2.57 0.09-0.9 1.71-0.9 3.65 1.8 3.65 5.67 2.7 12.1 12.69 12.1 4.36 0.05 7.47-1.57-1.53 1.62-4.64 2.16c0 0-0.45 0.9 0.14 1.62 0 0 9.85-1.8 12.19-15.84 0 0-0.54-0.95-1.3-0.32z"/>
<path d="m55.03 73.05s0.23 0.22 1.31 0.13 0.72-1.26 0.04-1.21 2.39-1.44 2.39 0.99-3.15 2.7-3.15 2.7-1.49 0-1.94-0.54 0.54-1.53 1.35-2.07z"/>
<path d="m28.8 66.52s-3.42 0.59-3.42 2.93 1.62 2.52 1.93 2.52c0.32 0 1.58-0.18 2.03-1.22 0 0 0.13 3.33-3.42 2.3 0 0-0.45 0.13 0.63 1.26 1.08 1.12-0.5 3.28-0.5 3.28s0.45-1.84-1.21-3.69c-1.67-1.84-1.17-3.91-1.17-3.91s-0.14-4.05 4.99-4.91 0.54 1.04 0.14 1.44z"/>
<path d="m40.95 78.54s-3.57 2.89-5.58 3.1c-2.16 0.23-3.74-0.85-3.74-2.11 0 0-1.57 3.1 1.44 4.14 0 0-0.85 1.35-2.56 1.35s-3.02-1.08-2.93-2.79-2.12 3.57 1.67 4.54c2.11 0.54 3.78-0.63 3.78-0.63s-1.44 2.03-0.36 4.77 1.98-1.12 1.98-3.15c0-2.02 0.22-2.92 1.12-3.01s-0.09 0.99-0.18 1.39c-0.09 0.41-0.81 2.88 1.76 2.88 1.44 0 1.93-1.71 1.93-1.71s-1.27 0.61-1.98-0.9c-0.31-0.67-0.22-3.42 4.05-5.31 0 0 1.22-1.98-0.4-2.56z"/>
<path d="m42.43 79.26s-0.27 11.29 9.68 11.29 6.52-0.63 7.47 0.9 0.76-3.19-1.22-3.24c-1.98-0.04-1.89 1.04-3.55 1.35-1.67 0.32-0.81-0.85 0-0.94s3.15-1.26 4.5-3.15 5.85-2.3 6.16 1.44 1.04-4.98-3.64-4.86c-3.47 0.09-5.27 4.18-5.27 4.18s-1.26 1.08-0.58-1.03c0.67-2.12-1.35-3.33-0.14-5.76 0 0-2.38 0.27-2.2 2.88 0 0-2.79-1.4-3.69 1.89 0 0 0.67-1.08 2.07-1.08 1.39 0 1.71 1.44 1.71 2.29 0 0.86-0.77 2.61-3.29 2.61s-6.88-2.34-6.61-8.68-0.63-1.22-1.4-0.09z"/>
</g>
</g>
<rect rx=".85" height="10" width="2.7" y="39.5" x="42" fill="#fd6"/>
</g>
</svg>