<?xml version="1.0"?>
<svg xmlns="http://www.w3.org/2000/svg" height="297" width="267" viewBox="0 0 89 99" xmlns:xlink="http://www.w3.org/1999/xlink">
<defs>
<pattern id="b" width="10" patternUnits="userSpaceOnUse" patternTransform="scale(1.253)" height="10">
<g fill="#fd6">
<rect width="10" fill="#044" height="10"/>
<circle cy=".81" cx="2.57" r=".3"/>
<circle cy="2.33" cx="3.05" r=".3"/>
<circle cy="2.42" cx="4.42" r=".3"/>
<circle cy="3.03" cx="1.84" r=".3"/>
<circle cy="1.36" cx="6.08" r=".3"/>
<circle cy="4.41" cx="5.82" r=".3"/>
<circle cy="4.05" cx="4.3" r=".3"/>
<circle cy="3.04" cx="5.54" r=".3"/>
<circle cy="5.53" cx="4.78" r=".3"/>
<circle cy="5.18" cx="2.67" r=".3"/>
<circle cy="1.45" cx="7.96" r=".3"/>
<circle cy="5.05" cx="7.05" r=".3"/>
<circle cy=".895" cx="4.34" r=".3"/>
<circle cy=".34" cx="7.12" r=".3"/>
<circle cy="1.05" cx="9.55" r=".3"/>
<circle cy="2.69" cx="7.01" r=".3"/>
<circle cy="2.69" cx="8.91" r=".3"/>
<circle cy="4.41" cx="9.32" r=".3"/>
<circle cy="3.87" cx="7.82" r=".3"/>
<circle cy="5.95" cx="8.27" r=".3"/>
<circle cy="7.43" cx="7.97" r=".3"/>
<circle cy="8.07" cx="9.34" r=".3"/>
<circle cy="9.32" cx="8.21" r=".3"/>
<circle cy="9.48" cx="9.68" r=".3"/>
<circle cy="6.19" cx="9.69" r=".3"/>
<circle cy="6.3" cx="3.38" r=".3"/>
<circle cy="8.2" cx="2.87" r=".3"/>
<circle cy="8.72" cx="4.59" r=".3"/>
<circle cy="9.67" cx="3.18" r=".3"/>
<circle cy="7.32" cx="5.73" r=".3"/>
<circle cy="6.51" cx="6.71" r=".3"/>
<circle cy="9.67" cx="5.73" r=".3"/>
<circle cy="8.37" cx="6.54" r=".3"/>
<circle cy="7.15" cx="4.37" r=".3"/>
<circle cy="7.25" cx=".622" r=".3"/>
<circle cy="5.68" cx=".831" r=".3"/>
<circle cy="8.52" cx="1.26" r=".3"/>
<circle cy="6.88" cx="1.99" r=".3"/>
<circle cy="3.18" cx=".374" r=".3"/>
<circle cy="1.66" cx="1.17" r=".3"/>
<circle cy=".093" cx="1.15" r=".3"/>
<circle cy="10.1" cx="1.15" r=".3"/>
<circle cy="4.45" cx="1.3" r=".3"/>
<circle cy="3.76" cx="3.05" r=".3"/>
</g>
</pattern>
</defs>
<g stroke-linejoin="round" stroke="#e70" stroke-width=".5" fill="#0b8">
<path stroke="#e71" d="m0.35 0.35h88.3v98.3h-88.3z" fill="#fccb8d"/>
<path stroke="#044" stroke-width=".8" d="m2.6 2.3h83.8v94.1h-83.8z" fill="url(#b)"/>
<use stroke-width="1.6" stroke="#044" xlink:href="#a"/>
<g id="a">
<path d="m61.33 25c1.34 0.67 2.86 0.9 3.77 0.46 1.09 0.89 0.22 2.82-1.13 2.91"/>
<path d="m63.97 28.37c0.68 1.39 1.03 6.96 3.59 4.68 0.18-0.15 0.36-0.84 0.77-1.05 0.67 1 0.66 2.52 0.23 3.39-0.89 1.81-3.15 1.92-4.44 0.37-0.88-0.97-1.45-2.43-2.12-4.09-0.67 2.33-2.33 2.66-5 1 1-0.34 1.65-0.51 2.03-0.86 2.13-1.98-0.03-5.48-2.92-4.9-0.48 1.49-1.52 2.92-2.78 3.87-2.93 2.58-6.64 3.27-9.65 4.9 3.24-0.7 6.57-2.35 7.18 0.6 0.25 1.19-1.14 2.36-2.55 2.87 0 0 0.3-0.98 0.08-1.21-1.47-1.57-5.18-0.64-7.5 1.45-3.86 0.49-2.93-0.08-3.94-0.24 3.25-4.17 6.65-6.2 10.33-8.39 0.93-1.05 1.21-2.17 2-3.16 5.04-5.65 11.83-5 14.69 0.77zm-6.7-4.82c0.57-3.02-1.12-8.22 1.73-9.04-1.33-1.84-3.67-0.51-4 1.16-1.67-2.67-3.67-4.34-5.67-5-2.05-0.798-4.02-1.653-7.32-1.489-0.98 0.253-3.33 0.636-4.24 0.798-2 0.351-4.03 1.381-5.86 0.891-1.09-0.39-0.91-1.537-0.58-2.203-3.33 1-2 5.333 1.67 4.003-0.67 0.66-1.92 1.66-2.38 2.17-0.97 1.1-1.36 2.64-2.31 3.77-0.61 0.83-1.71 1.38-2.73 0.96-0.62-0.39-0.75-1.38-0.91-2.24-1.67 1.17-2.34 5 1.2 5.14-1.72 1.2-2.7 2.74-2.87 4.2-0.51 4.3 3.33 8.66 8.12 6.36 3.58-1.73 1.65-6.66-1.45-6.7 2.1 3.95-2.55 6.02-3.79 2.44-0.48-1.9 0.29-3.67 1.78-4.63 1.62-1.03 2.11-2.6 2.81-4.92 0.17-0.45 0.41-0.88 0.46-0.93-0.09 0.67-0.17 2.8-0.07 3.5 0.28 1.97 0.9 3.97 2.34 5.4 2.09 2.07 6.3 3.39 4.67 7.94 1.82-0.09 4.18-4.32 0.24-5.48 0.69 0.2 1.89 0.8 2.55 0.7 3.02-0.47 4.01-1.64 5.27-3.76 0.56-2.14 0.27-4.29-0.2-6.4-1.51-2.47-3.2-5.64-1.63-8.52-1.77 0-2.1 0-3.1 0.33-1.04 1.56 0.6 5.46 1.29 7.22-0.76-1.38-2.09-1.62-3.25-1.39-0.88 0.18-1.45-0.2-2.09-1.16-0.59 1.16 0.47 3.48 1.69 3.72-0.57 1.07-0.79 3.96 0.63 4.16-0.11-1.25 1.23-2.77 2.16-1.75 2.07 2.3-0.37 4.78-2.88 4.42-2.17-0.31-3.83-1.96-4.52-3.97-0.44-1.28-0.74-2.57-0.68-3.92 0.26-5 5.65-8.33 11.65-7.66 6.33 0.7 10.37 7.78 9.45 12.19 0.96 0.07 1.91-0.03 2.82-0.31z"/>
<path d="m21.53 35.83c1.57 1.36 6.28 5.31 10.83 6.53l-0.42 2.02c-2.16-0.75-8.71-3.1-10.41-8.55zm12.49 9.81 0.83-3.89c-2.79 0.45-14.93-6.31-16.35-13.08-1.11 2.88 2.22 15.52 15.52 16.97zm23.56-0.36c3.54 0.68 9.31 2.25 12.69 7.88-3.46-3.12-7.28-4.93-13-5.83zm15.67 13.66c-0.92-10.94-11.67-14.9-17.7-15.08l-0.44 4.36c6.66 0.88 12.56 2.11 18.14 10.72zm-54.25 19.73-2.1 4.89 4.49-0.37zm0.4-6.34 6.16 13.4-12.4 0.87zm59.08-60.58-5.42 21-10.06-19.67zm-11.16 4.22 4.75 8.71 2.66-9.32z" fill-rule="evenodd" stroke="#fd6" stroke-width=".6" fill="#823"/>
<path d="m45.73 20.19c0.82-1.74 3.28-2.13 4.44 1.12-3.25-0.7-0.93 5.56-4.41 5.45 0.56-2.14 0.44-4.46-0.03-6.57z"/>
<path d="m38.63 20.39c0.96-0.53 2.25-0.39 2.83 0.62"/>
<path d="m56.11 26.91c-1.78 0.09-3.37 1.04-4.73 2.11"/>
<path d="m37.74 50.08c3.62 0.66 11.37 1.07 12.79 0.97l1.71-10.65c-3.27-0.53-9.72-1.01-13.07-0.83z" fill="#fd6"/>
<path d="m41.59 50.51c-7.88-1.16-11 1.43-13.67 2.78l-4.95 4.1c1.2-1.75 3.2-2.75 4.57-4.3 1.61-0.87 3.87-2.45 4.55-3.97-1-0.54-2.02-0.71-3.02-0.93-1.51 2.2-3.52 3.91-5.52 5.85-1.99 2.36-3.25 5.11-4.11 7.71 0.78 1.3 1.32 2.02 2.65 4.59 2.52-12.23 15.05-16.16 25.71-10.26 0.79 0.41 0.9 1.56 1.19 2.66 2.78 6.68 3.36 7 9.07 7.92 1.32 0.09 2.86-0.13 4.25 0.08 1.48 0.22 2.76 1.58 1.78 3.18 0.3 0.87 1.29 0 1.75-0.31 0.73-0.8 1.01-2.04 0.58-3.05-1.45-2.71-3.09-2.56-5.95-1.7 0 0 1.78-0.91 2.2-1.53 0.66-1 0.33-3 2.66-3.33-1.66-2.33-3.61-1.34-4.44-0.03-0.86-0.67-2.56-2.3-3.89-0.3 2.67 1 1.67 3.33-0.33 3.49-2.35-8.45-9.6-11.76-15.08-12.65z"/>
<path fill="#fccb8d" d="m34.02 45.64 0.83-3.89c-2.79 0.45-14.93-6.31-16.35-13.08-1.11 2.88 2.22 15.52 15.52 16.97zm39.23 13.3c-0.92-10.94-11.67-14.9-17.7-15.08l-0.44 4.36c6.66 0.88 12.56 2.11 18.14 10.72zm-53.85 13.39c-0.07 2.34 0.96 8.27 6.16 13.4-0.31-0.75-9.13-1.22-12.4 0.87 0 0 4.68-6.53 6.24-14.27zm59.08-60.58c-2.18 4.28-4.41 8.63-4.8 13.45-0.1 1.22-0.35 5.47-0.62 7.55-4.06-12.75-6.2-14.57-10.06-19.67 7.67 2.59 10.45 0.58 15.48-1.33zm-58.13 47.51c-1.02 2.23-2.13 6.98-2.49 8.61-0.79 3.55-1.17 4.53-1.43 5.5-0.88 4.28-3 8.2-5.74 11.37-1.91 2.2-4.099 5.15-4.587 8.99-0.078 0.61-0.205 1.28 0.434 2.13 0.983-1.08 2.627-3.13 4.193-4.34 3.45-2.66 8.18-3.85 12.27-3.37 6.32 0.04 11.47 4.33 17.47 5.67 6.56 1.94 13.55 1.75 20.18-0.23 9.47-2.83 16.19-11.39 17.36-20.85 0.8-6.42-0.48-12.88-2.51-17.98-3.54-8.89-10.96-13.06-21.1-13.97-0.88 3.39-1.22 6.88-1.6 10.36 0.9 0.35 3.74 0.53 4.99 0.74 4.92 0.81 9.29 3.58 11.62 8.04 2.44 4.67 2.68 9.77 1.99 13.99-0.96 5.92-3.29 10.42-7.55 13.31-5.6 3.91-12.81 5.97-19.57 3.97-2.55-0.49-5.22-0.99-7.53-2.26-3.72-1.35-7.09-3.6-9.94-6.32-3.37-3.61-5.17-8.46-5.11-13.39 0.04-0.79 0.15-1.69 0.34-2.67-0.42-1.73-0.51-5.88-1.69-7.3zm15.51-52c-10.89 1.633-14.67 7.09-14.9 15.44-0.2 7.18 2.83 11.97 8.51 14.24 2.51 0.99 5.11 1.58 7.73 2.1-1.08 3.53-0.93 7.28-1.62 10.9-4.26-0.77-8.06-2.05-11.4-4.25-1.68-1.14-3.31-2.5-4.67-4-3.54-3.9-5.2-9.26-5.55-14.62-0.41-18.28 16.97-25.93 32.74-22.9 3.23 0.62 6.04 1.394 9.08 2.377 4.13 1.336 8.06 3.873 11.48 4.583 4 0.91 7.47-0.25 10.96-2.505 2.88-1.974 5.45-4.625 8.11-6.292 0.34 1.334-1.18 3.206-1.78 4.197-5.29 6.51-6.88 14.59-8.09 22.13-1.31 8.02-1.12 14.57 3.25 20.01-0.61 0.67-4.88-3.2-5.12-3.76-3.51-5.19-4.55-11.64-6.38-17.56-1.45-4.65-3.99-8.96-7.28-12.52-5.28-5.718-15.45-9.016-25.07-7.572z" fill-rule="evenodd"/>
<path d="m56.67 63.16c-2 0.17-4.52-1.83-5.05-3.63"/>
<path d="m55.79 75.33c0.01 1.34 1.13 3.21 1.52 3.77 0.6 0.83 1.22 1.7 1.34 2.5 0.07 2.33-2.28 3.22-3.88 2.46-1.47-0.7-2.08-2.97-2.67-4.16-0.72 0.37-1.42 0.85-2.07 1.35 1.5 4.98 7.97 6.75 10.64 3.08 1.68-2.32 0.36-4.39-0.67-5.66 4 2.66 4.67-1.67 2-3.34-0.13 0.08 0.33 0.67 0 1-2 2-2.94-1-3.33-2.66-0.23-0.95-1-4.34-1.34-5.67"/>
<path d="m33.79 59.34c-1.47-1.57-4.1-0.7-4.12 1.99-1.67-1-1.92-3.59-1.2-4.78 0.91-1.49 2.74-2.22 4.81-1.56 5.24 2.78 4.97 8.92 2.8 13.29-1.53 2.37-1.29 4.79 0.22 6.95 0.84 1.22 1.58 2.52 3.07 3.19 9.03 4.07 15.79-2.97 15.08-12.33 0.97-0.13 1.94 0.22 2.84 0.56 0.12 3.75-0.29 7.35-3.62 11.35-3.8 4.56-9 4.67-11.35 4.34-2.32-0.33-6.32-2.67-9.4-2.32-1.67 0.14-2.2 0.99-2.57 2.3-1.57-0.26-3.02-3.32 0.31-3.8-4.66 0.48-8.36-2.31-6.43-6.88 0.79-1.85 3.34-2.82 5.02-1.13 1.03 1.04 1.08 3.82-1.2 3.87 0.28-0.71-0.07-1.96-0.9-1.95-2.09 0.05-1.16 3.35 0.58 3.41 1.49 0.18 3 0.13 4.49 0.31 0.64 0.22 1.68 0.85 2.45 1.17-1-1.65-1.75-3.41-2.19-5-1.07-3.84-0.85-8.23 2.19-11.65-0.25-0.68-0.57-0.99-0.88-1.33zm0.88 1.33c1.04 1.3 0.9 3.75 0.36 5.3"/>
<path d="m37.75 61.4c2.39-1.47 5.25-1.07 7.75 1.12 3.18 2.8 0.2 8.03-2.9 5.23-0.43-0.65 0.04-1.25 0.23-1.84-1.46-1.65-3.26 0.92-2.72 2.48 0.6 0.28 1.25 0.77 1.67 1.3l-1.87-1.17c-1.65 0.12-3.23 2.73-1.92 3.93 0.39-0.49 0.82-1.68 1.85-1.54 1.02 0.14 1.92 1.12 3.15 1.26 1.07 0.12 2.68-0.5 3.68-1.5-0.45 2.83-4.07 5.66-4.78 8.48 0.76 0.46 1.75 0.44 2.59 0.27 0.06-0.87 0.35-1.75 0.87-2.45 2.63-3.2 5.04-6.3 4.81-10.14-0.27-4.35-4.44-8.82-9.03-8.81-1.44-0.16-2.8 0.29-4.08 0.9"/>
<path d="m48.67 85.33c1.66-1.66 3.43-1.14 4-0.66 1.9 1.59 1 4-1 3.66 0.33-0.66 0.31-1.5-0.36-1.9-1.13-0.67-2.2 0.47-3.18 1.21-1.75 1.33-3.82 1.91-5.54 0.6-1.52-1.51-2.4-3.95-1.57-6.02 0.01-0.03 0.02-0.06 0.04-0.08 0.84-0.04 1.76 0.04 2.53 0.4-0.37 1.1-0.11 2.58 1.02 3.11 1.43 0.31 2.06-0.98 1.72-1.98 0.06-0.13-0.66-0.67-0.66-0.67 1.66-0.67 3 0.67 3 2.33z"/>
<path d="m51 77.33c2.36-0.22 3.54 2.21 3.67 3 2.66-2-0.05-5.6-2.34-5.66-2.01 0-2.93 2.21-3 3.33 0.56-0.27 1.12-0.61 1.67-0.67zm-21.69-25.2c-0.49-0.7-1.33-1.48-1.93-1.8-2.73-1.46-5.24 1.58-3.78 3.43 0.84-0.93 1.17-1.85 2.31-1.68 0.64 0.09 1.24 0.47 1.63 1.01zm20.04-41.46c0.03 0.83-0.09 1.77-0.65 2.41-0.76 0.85-2.78 0.96-3.26-0.37 0.12-0.26 0.14-0.54 0.29-0.82 0.4-0.7-0.06-2.288-0.98-2.562-0.81-0.242-3.04-0.056-3.04-0.056 2.1-3.939 7.54-1.505 7.64 1.398z"/>
<path d="m47.62 91.42s1.38 0.57 1.38 2.2-1.15 1.85-1.15 1.85 2.41 1.3 4.17-0.23c1.75-1.52-0.17-3.83-0.88-3.94-0.72-0.1-1.67-0.23-3.52 0.12zm2.78-40.21c0.57 0.48 1.45 0.65 2.32 0.23l1.62-10.66c-0.47-0.47-1.39-0.7-2.09-0.47-0.88 3.55-1.43 7.32-1.85 10.9zm-14.82-1.27c0.66 0.48 1.38 0.71 2.07 0.34 0.61-3.51 0.7-7.19 1.52-10.71-0.72-0.46-1.38-0.68-1.97-0.53-0.94 2.2-1.17 7.3-1.62 10.9z" fill="#fd6"/>
</g>
<g fill="#fccb8d">
<circle cy="45.4" cx="44.87" r="1.2"/>
<circle cy="41.87" cx="45.24" r="1.2"/>
<circle cy="48.86" cx="44.6" r="1.2"/>
</g>
</g>
<g fill="#044">
<circle cy="45.4" cx="44.87" r=".6"/>
<circle cy="41.87" cx="45.24" r=".6"/>
<circle cy="48.86" cx="44.6" r=".6"/>
</g>
<path stroke-linejoin="round" style="color:#000000" d="m20.81 57.99c-0.43 0.41-1.01 0.91-1.05 2.23l2.18 7.23c0.47-0.55 1.06-1.24 0.9-2.97z" stroke="#e70" stroke-width=".5" fill="#fd6"/>
</svg>
